<svg xmlns="http://www.w3.org/2000/svg" xmlns:xlink="http://www.w3.org/1999/xlink" width="500" zoomAndPan="magnify" viewBox="0 0 375 374.999991" height="500" preserveAspectRatio="xMidYMid meet" version="1.0"><defs><g/><clipPath id="5003f8b1b8"><rect x="0" width="372" y="0" height="375"/></clipPath></defs><g transform="matrix(1, 0, 0, 1, 3, 0)"><g clip-path="url(#5003f8b1b8)"><g fill="#000000" fill-opacity="1"><g transform="translate(1.087585, 324.128409)"><g><path d="M 363.414062 -2.90625 C 346.800781 -2.90625 331.019531 -7.0625 317.3125 -41.117188 L 217.632812 -285.746094 L 122.523438 -285.746094 L 140.382812 -240.890625 L 78.914062 -90.125 C 54.410156 -30.320312 25.335938 -6.644531 1.660156 -2.90625 L 1.660156 0 L 138.304688 0 L 138.304688 -2.90625 C 90.957031 -2.90625 78.496094 -59.808594 92.617188 -111.308594 L 192.296875 -111.308594 L 217.632812 -48.179688 C 228.847656 -19.105469 211.820312 -2.90625 182.332031 -2.90625 L 182.332031 0 L 367.566406 0 L 367.566406 -2.90625 Z M 93.863281 -114.632812 C 95.109375 -119.199219 96.773438 -123.769531 98.433594 -127.921875 L 142.457031 -235.90625 L 191.050781 -114.632812 Z M 93.863281 -114.632812 "/></g></g></g></g></g></svg>