<svg xmlns="http://www.w3.org/2000/svg" xmlns:xlink="http://www.w3.org/1999/xlink" width="500" zoomAndPan="magnify" viewBox="0 0 375 374.999991" height="500" preserveAspectRatio="xMidYMid meet" version="1.0"><defs><g/><clipPath id="54d9480cf1"><path d="M 0 46 L 374 46 L 374 340 L 0 340 Z M 0 46 " clip-rule="nonzero"/></clipPath><clipPath id="dac1c04544"><rect x="0" width="375" y="0" height="375"/></clipPath></defs><rect x="-37.5" width="450" fill="#ffffff" y="-37.499999" height="449.999989" fill-opacity="1"/><rect x="-37.5" width="450" fill="#ffffff" y="-37.499999" height="449.999989" fill-opacity="1"/><g transform="matrix(1, 0, 0, 1, 0, 0)"><g clip-path="url(#dac1c04544)"><g clip-path="url(#54d9480cf1)"><g fill="#000000" fill-opacity="1"><g transform="translate(-3.654782, 339.382679)"><g><path d="M 372.679688 -2.980469 C 355.644531 -2.980469 339.460938 -7.242188 325.402344 -42.167969 L 223.183594 -293.035156 L 125.648438 -293.035156 L 143.960938 -247.035156 L 80.925781 -92.425781 C 55.796875 -31.09375 25.980469 -6.816406 1.703125 -2.980469 L 1.703125 0 L 141.832031 0 L 141.832031 -2.980469 C 93.277344 -2.980469 80.5 -61.332031 94.980469 -114.148438 L 197.203125 -114.148438 L 223.183594 -49.40625 C 234.683594 -19.59375 217.21875 -2.980469 186.980469 -2.980469 L 186.980469 0 L 376.941406 0 L 376.941406 -2.980469 Z M 96.257812 -117.554688 C 97.535156 -122.238281 99.238281 -126.925781 100.945312 -131.183594 L 146.089844 -241.921875 L 195.925781 -117.554688 Z M 96.257812 -117.554688 "/></g></g></g></g></g></g></svg>