<svg xmlns="http://www.w3.org/2000/svg" xmlns:xlink="http://www.w3.org/1999/xlink" width="250" zoomAndPan="magnify" viewBox="0 0 187.92 420.96" height="550" preserveAspectRatio="xMidYMid meet" version="1.0"><defs><clipPath id="b145371b57"><path d="M 106 229.359375 L 152.472656 229.359375 L 152.472656 375 L 106 375 Z M 106 229.359375 " clip-rule="nonzero"/></clipPath><clipPath id="99823f0cf8"><path d="M 35.160156 246.386719 L 81.640625 246.386719 L 81.640625 392 L 35.160156 392 Z M 35.160156 246.386719 " clip-rule="nonzero"/></clipPath></defs><g clip-path="url(#b145371b57)"><path fill="#ffffff" d="M 152.15625 348.871094 L 152.15625 231.304688 C 152.15625 230.210938 151.269531 229.328125 150.179688 229.328125 C 149.085938 229.328125 148.199219 230.210938 148.199219 231.304688 L 148.199219 334.855469 C 148.199219 336.382812 146.539062 337.289062 145.230469 336.503906 C 141.074219 334.003906 135.382812 333.175781 129.105469 334.605469 C 116.375 337.507812 106.054688 348.59375 106.054688 359.375 C 106.054688 370.152344 116.375 376.542969 129.105469 373.640625 C 141.835938 370.742188 152.15625 359.652344 152.15625 348.871094 Z M 152.15625 348.871094 " fill-opacity="1" fill-rule="nonzero"/></g><path stroke-linecap="round" transform="matrix(0.722343, -0.200605, 0.200605, 0.722343, 77.75896, 247.363517)" fill="none" stroke-linejoin="miter" d="M 2.999068 3.001066 L 97.548818 2.998847 " stroke="#ffffff" stroke-width="6" stroke-opacity="1" stroke-miterlimit="4"/><g clip-path="url(#99823f0cf8)"><path fill="#ffffff" d="M 81.320312 365.898438 L 81.320312 248.332031 C 81.320312 247.238281 80.4375 246.355469 79.34375 246.355469 C 78.253906 246.355469 77.367188 247.238281 77.367188 248.332031 L 77.367188 351.882812 C 77.367188 353.410156 75.703125 354.316406 74.398438 353.53125 C 70.242188 351.03125 64.550781 350.203125 58.273438 351.632812 C 45.542969 354.535156 35.222656 365.625 35.222656 376.402344 C 35.222656 387.179688 45.542969 393.570312 58.273438 390.667969 C 71 387.769531 81.320312 376.679688 81.320312 365.898438 Z M 81.320312 365.898438 " fill-opacity="1" fill-rule="nonzero"/></g><path stroke-linecap="round" transform="matrix(0.722343, -0.200605, 0.200605, 0.722343, 77.133861, 249.614316)" fill="none" stroke-linejoin="miter" d="M 2.999481 3.000075 L 97.549231 2.997856 " stroke="#ffffff" stroke-width="6" stroke-opacity="1" stroke-miterlimit="4"/></svg>