<svg xmlns="http://www.w3.org/2000/svg" xmlns:xlink="http://www.w3.org/1999/xlink" width="100" zoomAndPan="magnify" viewBox="0 0 75 420" height="550" preserveAspectRatio="xMidYMid meet" version="1.0"><defs><clipPath id="98967e97e4"><path d="M 0 150.246094 L 75 150.246094 L 75 284.496094 L 0 284.496094 Z M 0 150.246094 " clip-rule="nonzero"/></clipPath></defs><g clip-path="url(#98967e97e4)"><path fill="#000000" d="M 40.246094 262.4375 C 40.246094 268.480469 36.625 273.988281 31.390625 278.019531 C 28.863281 280.019531 26.085938 281.570312 23.058594 282.675781 C 20.027344 283.78125 16.902344 284.378906 13.679688 284.472656 C 11.929688 284.503906 10.226562 284.242188 8.570312 283.691406 C 6.914062 283.136719 5.394531 282.320312 4.019531 281.242188 C 3.378906 280.738281 2.808594 280.171875 2.300781 279.535156 C 1.792969 278.902344 1.363281 278.214844 1.015625 277.484375 C 0.664062 276.75 0.40625 275.984375 0.234375 275.191406 C 0.0625 274.394531 -0.015625 273.59375 0 272.78125 C 0 267.273438 3.757812 261.761719 8.855469 257.734375 C 13.953125 253.570312 20.394531 250.882812 25.769531 250.882812 C 30.46875 250.882812 34.492188 251.558594 36.90625 253.839844 L 36.90625 150.265625 L 40.261719 150.265625 C 40.527344 155.101562 41.335938 161.820312 47.105469 167.058594 C 53.171875 172.183594 58.761719 177.78125 63.878906 183.851562 C 69.382812 190.703125 73.269531 199.300781 73.269531 208.03125 C 73.25 212.546875 72.625 216.980469 71.394531 221.328125 C 73.753906 226.019531 74.910156 230.992188 74.863281 236.242188 C 74.863281 240.414062 74.292969 244.511719 73.152344 248.527344 C 72.015625 252.546875 70.347656 256.332031 68.152344 259.882812 L 66.007812 259.882812 C 68.824219 255.585938 72.179688 245.378906 71.914062 238.929688 C 71.636719 231.808594 71.109375 227.644531 66.546875 222.003906 C 61.3125 215.554688 47.757812 208.839844 40.246094 203.601562 Z M 69.765625 209.375 C 69.496094 202.253906 66.007812 196.75 61.449219 191.105469 C 56.214844 184.660156 47.761719 179.285156 40.246094 174.984375 C 40.515625 184.660156 46.820312 194.464844 52.585938 199.703125 C 57.589844 203.828125 62.152344 208.394531 66.269531 213.398438 C 67.433594 214.859375 68.507812 216.378906 69.492188 217.964844 C 69.773438 215.109375 69.867188 212.246094 69.765625 209.375 Z M 69.765625 209.375 " fill-opacity="1" fill-rule="evenodd"/></g></svg>