<svg xmlns="http://www.w3.org/2000/svg" xmlns:xlink="http://www.w3.org/1999/xlink" width="100" zoomAndPan="magnify" viewBox="0 0 75 420" height="550" preserveAspectRatio="xMidYMid meet" version="1.0"><defs><clipPath id="2f442f4a15"><path d="M 16.644531 224.617188 L 58.644531 224.617188 L 58.644531 356 L 16.644531 356 Z M 16.644531 224.617188 " clip-rule="nonzero"/></clipPath></defs><g clip-path="url(#2f442f4a15)"><path fill="#000000" d="M 58.554688 332.359375 L 58.554688 226.371094 C 58.554688 225.386719 57.753906 224.589844 56.761719 224.589844 C 55.769531 224.589844 54.964844 225.386719 54.964844 226.371094 L 54.964844 319.722656 C 54.964844 321.097656 53.457031 321.917969 52.269531 321.210938 C 48.496094 318.957031 43.328125 318.207031 37.628906 319.5 C 26.070312 322.113281 16.703125 332.109375 16.703125 341.828125 C 16.703125 351.546875 26.070312 357.304688 37.628906 354.6875 C 49.1875 352.074219 58.554688 342.078125 58.554688 332.359375 Z M 58.554688 332.359375 " fill-opacity="1" fill-rule="nonzero"/></g></svg>