<svg xmlns="http://www.w3.org/2000/svg" xmlns:xlink="http://www.w3.org/1999/xlink" width="100" zoomAndPan="magnify" viewBox="0 0 75 420" height="550" preserveAspectRatio="xMidYMid meet" version="1.0"><defs><clipPath id="7347425559"><path d="M 0 150.246094 L 75 150.246094 L 75 284.496094 L 0 284.496094 Z M 0 150.246094 " clip-rule="nonzero"/></clipPath></defs><g clip-path="url(#7347425559)"><path fill="#ffffff" d="M 40.246094 262.660156 C 40.246094 268.71875 36.625 274.238281 31.390625 278.273438 C 28.863281 280.28125 26.085938 281.835938 23.058594 282.941406 C 20.027344 284.046875 16.902344 284.648438 13.679688 284.742188 C 11.929688 284.773438 10.226562 284.511719 8.570312 283.957031 C 6.914062 283.402344 5.394531 282.585938 4.019531 281.503906 C 3.378906 281 2.808594 280.433594 2.300781 279.796875 C 1.792969 279.160156 1.363281 278.472656 1.015625 277.738281 C 0.664062 277.003906 0.40625 276.238281 0.234375 275.441406 C 0.0625 274.644531 -0.015625 273.839844 0 273.027344 C 0 267.507812 3.757812 261.988281 8.855469 257.953125 C 13.953125 253.777344 20.394531 251.085938 25.769531 251.085938 C 30.46875 251.085938 34.492188 251.761719 36.90625 254.046875 L 36.90625 150.269531 L 40.261719 150.269531 C 40.527344 155.113281 41.335938 161.84375 47.105469 167.09375 C 53.171875 172.230469 58.761719 177.839844 63.878906 183.917969 C 69.382812 190.785156 73.269531 199.398438 73.269531 208.148438 C 73.25 212.671875 72.625 217.117188 71.394531 221.472656 C 73.753906 226.171875 74.910156 231.152344 74.863281 236.414062 C 74.863281 240.597656 74.292969 244.699219 73.152344 248.726562 C 72.015625 252.75 70.347656 256.542969 68.152344 260.105469 L 66.007812 260.105469 C 68.824219 255.796875 72.179688 245.570312 71.914062 239.105469 C 71.636719 231.972656 71.109375 227.800781 66.546875 222.148438 C 61.3125 215.6875 47.757812 208.957031 40.246094 203.707031 Z M 69.765625 209.492188 C 69.496094 202.359375 66.007812 196.84375 61.449219 191.1875 C 56.214844 184.726562 47.761719 179.34375 40.246094 175.035156 C 40.515625 184.726562 46.820312 194.550781 52.585938 199.800781 C 57.589844 203.9375 62.152344 208.511719 66.269531 213.527344 C 67.433594 214.988281 68.507812 216.511719 69.492188 218.101562 C 69.773438 215.238281 69.867188 212.371094 69.765625 209.492188 Z M 69.765625 209.492188 " fill-opacity="1" fill-rule="evenodd"/></g></svg>