<svg xmlns="http://www.w3.org/2000/svg" xmlns:xlink="http://www.w3.org/1999/xlink" width="100" zoomAndPan="magnify" viewBox="0 0 75 420" height="550" preserveAspectRatio="xMidYMid meet" version="1.0"><defs><clipPath id="8350c74f87"><path d="M 16.644531 224.617188 L 58.644531 224.617188 L 58.644531 356 L 16.644531 356 Z M 16.644531 224.617188 " clip-rule="nonzero"/></clipPath></defs><g clip-path="url(#8350c74f87)"><path fill="#ffffff" d="M 58.265625 332.367188 L 58.265625 226.371094 C 58.265625 225.386719 57.464844 224.589844 56.480469 224.589844 C 55.496094 224.589844 54.699219 225.386719 54.699219 226.371094 L 54.699219 319.730469 C 54.699219 321.105469 53.199219 321.925781 52.019531 321.21875 C 48.273438 318.964844 43.140625 318.21875 37.484375 319.507812 C 26.003906 322.121094 16.699219 332.121094 16.699219 341.835938 C 16.699219 351.554688 26.003906 357.316406 37.484375 354.699219 C 48.960938 352.085938 58.265625 342.085938 58.265625 332.367188 Z M 58.265625 332.367188 " fill-opacity="1" fill-rule="nonzero"/></g></svg>