<svg xmlns="http://www.w3.org/2000/svg" xmlns:xlink="http://www.w3.org/1999/xlink" width="100" zoomAndPan="magnify" viewBox="0 0 75 420" height="550" preserveAspectRatio="xMidYMid meet" version="1.0"><defs><clipPath id="484b092b7e"><path d="M 31 0 L 74.851562 0 L 74.851562 122 L 31 122 Z M 31 0 " clip-rule="nonzero"/></clipPath><clipPath id="3043ec281b"><path d="M 7.5 75.625 L 18.75 75.625 L 18.75 108.625 L 7.5 108.625 Z M 7.5 75.625 " clip-rule="nonzero"/></clipPath></defs><g clip-path="url(#484b092b7e)"><path fill="#180f0e" d="M 58.539062 111.054688 C 49.585938 116.542969 40.089844 117.457031 36.839844 112.105469 C 33.589844 106.757812 38.609375 99.5625 47.5625 94.070312 C 56.515625 88.582031 66.011719 86.875 69.261719 92.222656 C 72.511719 97.574219 67.496094 105.5625 58.539062 111.054688 Z M 72.738281 0 C 71.617188 0 70.707031 0.910156 70.707031 2.035156 L 70.707031 88.101562 C 64.992188 81.96875 54.34375 80.648438 44.84375 85.472656 C 33.746094 91.105469 28.421875 102.980469 32.953125 111.992188 C 37.488281 121.003906 50.160156 123.742188 61.261719 118.109375 C 69.648438 113.851562 74.734375 106.027344 74.761719 98.570312 C 74.761719 98.542969 74.765625 98.519531 74.765625 98.492188 L 74.765625 2.035156 C 74.765625 0.910156 73.859375 0 72.738281 0 " fill-opacity="1" fill-rule="nonzero"/></g><g clip-path="url(#3043ec281b)"><path fill="#000000" d="M 8.796875 75.644531 C 8.574219 75.652344 8.375 75.730469 8.199219 75.871094 C 8.023438 76.011719 7.902344 76.191406 7.839844 76.410156 C 7.773438 76.628906 7.777344 76.847656 7.851562 77.0625 C 7.921875 77.28125 8.050781 77.453125 8.230469 77.589844 L 10.832031 79.5625 C 10.847656 79.578125 10.867188 79.59375 10.882812 79.609375 C 11.378906 79.992188 11.546875 81.046875 11.21875 81.574219 L 8.023438 86.714844 C 7.070312 88.246094 7.445312 90.296875 8.894531 91.339844 C 8.894531 91.339844 8.894531 91.339844 8.894531 91.34375 L 14.109375 95.082031 L 14.113281 95.085938 C 14.125 95.09375 14.136719 95.101562 14.148438 95.105469 L 14.457031 95.328125 C 12.914062 95.414062 11.554688 95.757812 10.554688 96.558594 C 9.414062 97.472656 8.804688 98.914062 8.804688 100.53125 C 8.804688 102.789062 10.296875 104.457031 11.988281 105.660156 C 13.679688 106.859375 15.6875 107.734375 17.230469 108.492188 C 17.445312 108.597656 17.671875 108.625 17.910156 108.570312 C 18.144531 108.519531 18.339844 108.398438 18.492188 108.207031 C 18.648438 108.019531 18.726562 107.800781 18.734375 107.554688 C 18.742188 107.308594 18.675781 107.085938 18.53125 106.886719 C 17.316406 105.183594 15.933594 103.945312 15.933594 100.53125 C 15.933594 99.429688 16.214844 98.597656 16.574219 98.09375 C 16.929688 97.59375 17.304688 97.417969 17.667969 97.414062 C 17.902344 97.417969 18.113281 97.351562 18.304688 97.214844 C 18.496094 97.078125 18.625 96.894531 18.699219 96.667969 C 18.769531 96.441406 18.765625 96.214844 18.691406 95.988281 C 18.613281 95.761719 18.480469 95.582031 18.285156 95.449219 L 15.324219 93.324219 C 14.824219 92.957031 14.664062 92.160156 15.015625 91.59375 L 18.207031 86.460938 C 19.164062 84.957031 18.765625 82.9375 17.371094 81.851562 C 17.367188 81.851562 17.367188 81.847656 17.363281 81.84375 L 12.320312 78.027344 C 12.289062 78 12.257812 77.972656 12.226562 77.945312 L 9.484375 75.863281 C 9.28125 75.707031 9.050781 75.632812 8.796875 75.644531 Z M 8.796875 75.644531 " fill-opacity="1" fill-rule="nonzero"/></g></svg>