<svg xmlns="http://www.w3.org/2000/svg" xmlns:xlink="http://www.w3.org/1999/xlink" width="100" zoomAndPan="magnify" viewBox="0 0 75 420" height="550" preserveAspectRatio="xMidYMid meet" version="1.0"><defs><clipPath id="e1cea229f2"><path d="M 31 0 L 74.851562 0 L 74.851562 121 L 31 121 Z M 31 0 " clip-rule="nonzero"/></clipPath><clipPath id="06ed65faa6"><path d="M 7.5 75.625 L 18.75 75.625 L 18.75 108.625 L 7.5 108.625 Z M 7.5 75.625 " clip-rule="nonzero"/></clipPath></defs><g clip-path="url(#e1cea229f2)"><path fill="#ffffff" d="M 58.632812 110.886719 C 49.652344 116.367188 40.125 117.277344 36.867188 111.9375 C 33.605469 106.59375 38.640625 99.410156 47.621094 93.929688 C 56.597656 88.449219 66.125 86.742188 69.386719 92.082031 C 72.644531 97.425781 67.613281 105.402344 58.632812 110.886719 Z M 72.871094 0 C 71.75 0 70.835938 0.910156 70.835938 2.035156 L 70.835938 87.964844 C 65.105469 81.84375 54.421875 80.527344 44.890625 85.339844 C 33.761719 90.964844 28.421875 102.824219 32.96875 111.824219 C 37.515625 120.820312 50.226562 123.554688 61.359375 117.929688 C 69.773438 113.679688 74.875 105.867188 74.902344 98.421875 C 74.902344 98.394531 74.90625 98.371094 74.90625 98.34375 L 74.90625 2.035156 C 74.90625 0.910156 73.996094 0 72.871094 0 " fill-opacity="1" fill-rule="nonzero"/></g><g clip-path="url(#06ed65faa6)"><path fill="#ffffff" d="M 8.839844 75.644531 C 8.609375 75.652344 8.402344 75.730469 8.21875 75.871094 C 8.039062 76.015625 7.914062 76.195312 7.847656 76.417969 C 7.78125 76.640625 7.789062 76.859375 7.863281 77.078125 C 7.9375 77.296875 8.066406 77.472656 8.253906 77.609375 L 10.9375 79.601562 C 10.957031 79.617188 10.972656 79.632812 10.992188 79.648438 C 11.503906 80.039062 11.675781 81.101562 11.335938 81.636719 L 8.039062 86.828125 C 7.058594 88.371094 7.445312 90.441406 8.9375 91.496094 C 8.9375 91.496094 8.941406 91.496094 8.941406 91.5 L 14.324219 95.277344 L 14.328125 95.28125 C 14.339844 95.285156 14.351562 95.292969 14.363281 95.300781 L 14.679688 95.523438 C 13.085938 95.609375 11.6875 95.957031 10.652344 96.765625 C 9.476562 97.691406 8.847656 99.148438 8.847656 100.777344 C 8.847656 103.058594 10.386719 104.742188 12.132812 105.957031 C 13.882812 107.171875 15.953125 108.050781 17.542969 108.816406 C 17.769531 108.925781 18 108.953125 18.246094 108.898438 C 18.488281 108.847656 18.6875 108.722656 18.847656 108.53125 C 19.007812 108.339844 19.089844 108.121094 19.097656 107.871094 C 19.105469 107.625 19.035156 107.398438 18.890625 107.199219 C 17.632812 105.476562 16.203125 104.226562 16.203125 100.777344 C 16.203125 99.664062 16.496094 98.828125 16.867188 98.316406 C 17.234375 97.8125 17.621094 97.632812 17.996094 97.628906 C 18.238281 97.636719 18.457031 97.570312 18.652344 97.429688 C 18.851562 97.289062 18.984375 97.105469 19.058594 96.875 C 19.132812 96.648438 19.132812 96.417969 19.050781 96.191406 C 18.972656 95.960938 18.835938 95.78125 18.632812 95.644531 L 15.578125 93.5 C 15.058594 93.128906 14.894531 92.324219 15.257812 91.753906 C 15.257812 91.753906 15.257812 91.753906 15.261719 91.753906 L 18.550781 86.570312 C 19.539062 85.046875 19.132812 83.011719 17.691406 81.914062 C 17.6875 81.914062 17.683594 81.910156 17.683594 81.90625 L 12.476562 78.050781 C 12.445312 78.023438 12.410156 77.996094 12.378906 77.96875 L 9.546875 75.867188 C 9.339844 75.707031 9.101562 75.632812 8.839844 75.644531 Z M 8.839844 75.644531 " fill-opacity="1" fill-rule="nonzero"/></g></svg>