<svg xmlns="http://www.w3.org/2000/svg" xmlns:xlink="http://www.w3.org/1999/xlink" width="250" zoomAndPan="magnify" viewBox="0 0 187.92 420.96" height="550" preserveAspectRatio="xMidYMid meet" version="1.0"><defs><clipPath id="c1624cae0c"><path d="M 71 2.359375 L 117.246094 2.359375 L 117.246094 148 L 71 148 Z M 71 2.359375 " clip-rule="nonzero"/></clipPath><clipPath id="63e7e48c26"><path d="M 19 0.0117188 L 117.816406 0.0117188 L 117.816406 49 L 19 49 Z M 19 0.0117188 " clip-rule="nonzero"/></clipPath><clipPath id="9b6778465a"><path d="M 0.160156 19.386719 L 46.414062 19.386719 L 46.414062 165 L 0.160156 165 Z M 0.160156 19.386719 " clip-rule="nonzero"/></clipPath><clipPath id="dc1d4c74aa"><path d="M 18 0.0117188 L 117.816406 0.0117188 L 117.816406 51 L 18 51 Z M 18 0.0117188 " clip-rule="nonzero"/></clipPath><clipPath id="5f07283782"><rect x="0" width="118" y="0" height="168"/></clipPath></defs><g transform="matrix(1, 0, 0, 1, 35, 227)"><g clip-path="url(#5f07283782)"><g clip-path="url(#c1624cae0c)"><path fill="#000000" d="M 117.148438 121.804688 L 117.148438 4.304688 C 117.148438 3.210938 116.265625 2.328125 115.171875 2.328125 C 114.082031 2.328125 113.195312 3.210938 113.195312 4.304688 L 113.195312 107.796875 C 113.195312 109.320312 111.535156 110.230469 110.226562 109.445312 C 106.070312 106.945312 100.378906 106.117188 94.101562 107.546875 C 81.375 110.445312 71.054688 121.527344 71.054688 132.300781 C 71.054688 143.074219 81.375 149.457031 94.101562 146.558594 C 106.832031 143.660156 117.148438 132.578125 117.148438 121.804688 Z M 117.148438 121.804688 " fill-opacity="1" fill-rule="nonzero"/></g><g clip-path="url(#63e7e48c26)"><path stroke-linecap="round" transform="matrix(0.450172, -0.125019, 0.125019, 0.450172, 42.735604, 20.27906)" fill="none" stroke-linejoin="miter" d="M 5.002733 5.003926 L 156.343314 5.000831 " stroke="#000000" stroke-width="10" stroke-opacity="1" stroke-miterlimit="4"/></g><g clip-path="url(#9b6778465a)"><path fill="#000000" d="M 46.316406 138.832031 L 46.316406 21.332031 C 46.316406 20.238281 45.433594 19.355469 44.339844 19.355469 C 43.246094 19.355469 42.363281 20.238281 42.363281 21.332031 L 42.363281 124.824219 C 42.363281 126.347656 40.699219 127.257812 39.394531 126.472656 C 35.238281 123.972656 29.546875 123.144531 23.269531 124.574219 C 10.542969 127.472656 0.222656 138.554688 0.222656 149.328125 C 0.222656 160.101562 10.542969 166.484375 23.269531 163.585938 C 36 160.6875 46.316406 149.605469 46.316406 138.832031 Z M 46.316406 138.832031 " fill-opacity="1" fill-rule="nonzero"/></g><g clip-path="url(#dc1d4c74aa)"><path stroke-linecap="round" transform="matrix(0.450172, -0.125019, 0.125019, 0.450172, 42.110514, 22.529919)" fill="none" stroke-linejoin="miter" d="M 5.00341 5.002208 L 156.335935 4.996876 " stroke="#000000" stroke-width="10" stroke-opacity="1" stroke-miterlimit="4"/></g></g></g></svg>