<svg xmlns="http://www.w3.org/2000/svg" xmlns:xlink="http://www.w3.org/1999/xlink" width="100" zoomAndPan="magnify" viewBox="0 0 75 420" height="550" preserveAspectRatio="xMidYMid meet" version="1.0"><defs><clipPath id="7c3d0eef8e"><path d="M 9.441406 370.90625 L 65.691406 370.90625 L 65.691406 404.65625 L 9.441406 404.65625 Z M 9.441406 370.90625 " clip-rule="nonzero"/></clipPath></defs><g clip-path="url(#7c3d0eef8e)"><path fill="#ffffff" d="M 37.496094 370.90625 C 22.011719 370.90625 9.457031 378.535156 9.457031 387.953125 C 9.457031 397.371094 22.011719 404.996094 37.496094 404.996094 C 52.980469 404.996094 65.53125 397.363281 65.53125 387.953125 C 65.53125 378.542969 52.980469 370.90625 37.496094 370.90625 Z M 42.335938 401.6875 C 36.289062 403.820312 29.21875 399.402344 26.539062 391.808594 C 23.859375 384.214844 26.59375 376.339844 32.640625 374.207031 C 38.683594 372.078125 45.757812 376.496094 48.4375 384.089844 C 51.117188 391.679688 48.386719 399.558594 42.335938 401.6875 Z M 42.335938 401.6875 " fill-opacity="1" fill-rule="evenodd"/></g></svg>