<svg xmlns="http://www.w3.org/2000/svg" xmlns:xlink="http://www.w3.org/1999/xlink" width="100" zoomAndPan="magnify" viewBox="0 0 75 420" height="550" preserveAspectRatio="xMidYMid meet" version="1.0"><defs><clipPath id="97386f365d"><path d="M 9.441406 370.90625 L 65.691406 370.90625 L 65.691406 404.65625 L 9.441406 404.65625 Z M 9.441406 370.90625 " clip-rule="nonzero"/></clipPath></defs><g clip-path="url(#97386f365d)"><path fill="#000000" d="M 37.566406 370.90625 C 22.042969 370.90625 9.457031 378.460938 9.457031 387.78125 C 9.457031 397.105469 22.042969 404.65625 37.566406 404.65625 C 53.085938 404.65625 65.671875 397.097656 65.671875 387.78125 C 65.671875 378.464844 53.085938 370.90625 37.566406 370.90625 Z M 42.417969 401.382812 C 36.355469 403.492188 29.269531 399.117188 26.582031 391.601562 C 23.894531 384.085938 26.636719 376.285156 32.699219 374.175781 C 38.757812 372.066406 45.847656 376.441406 48.535156 383.957031 C 51.222656 391.472656 48.484375 399.273438 42.417969 401.382812 Z M 42.417969 401.382812 " fill-opacity="1" fill-rule="evenodd"/></g></svg>