<svg xmlns="http://www.w3.org/2000/svg" xmlns:xlink="http://www.w3.org/1999/xlink" width="100" zoomAndPan="magnify" viewBox="0 0 75 420" height="550" preserveAspectRatio="xMidYMid meet" version="1.0"><defs><clipPath id="7e9cf63b01"><path d="M 0 0 L 75 0 L 75 138.75 L 0 138.75 Z M 0 0 " clip-rule="nonzero"/></clipPath></defs><g clip-path="url(#7e9cf63b01)"><path fill="#000000" d="M 41.199219 0.015625 C 42.160156 6.953125 42.296875 15.707031 49.433594 24.453125 C 54.925781 31.117188 61.101562 37.09375 65.355469 42.503906 C 70.984375 49.585938 74.96875 58.472656 74.96875 67.5 C 74.96875 81.941406 68.105469 96.238281 63.4375 104.15625 L 61.238281 104.15625 C 64.535156 96.652344 71.121094 84.300781 70.570312 71.109375 C 70.414062 67.277344 69.679688 63.5625 68.367188 59.957031 C 67.054688 56.355469 65.230469 53.039062 62.886719 50.003906 C 57.671875 43.199219 48.890625 37.78125 41.199219 37.230469 L 41.199219 115.957031 C 41.199219 122.203125 37.496094 127.894531 32.140625 132.0625 C 29.5625 134.128906 26.726562 135.730469 23.628906 136.871094 C 20.527344 138.015625 17.328125 138.632812 14.027344 138.730469 C 12.238281 138.765625 10.496094 138.496094 8.796875 137.925781 C 7.101562 137.351562 5.550781 136.511719 4.144531 135.398438 C 3.488281 134.875 2.902344 134.285156 2.382812 133.628906 C 1.863281 132.972656 1.421875 132.265625 1.066406 131.507812 C 0.707031 130.75 0.441406 129.960938 0.265625 129.140625 C 0.0898438 128.320312 0.0117188 127.488281 0.0273438 126.652344 C 0.0273438 120.957031 3.871094 115.265625 9.085938 111.101562 C 14.300781 106.796875 20.890625 104.019531 26.382812 104.019531 C 31.1875 104.019531 35.304688 104.714844 37.773438 107.074219 L 37.773438 0.015625 L 41.207031 0.015625 Z M 41.199219 0.015625 " fill-opacity="1" fill-rule="evenodd"/></g></svg>