<svg xmlns="http://www.w3.org/2000/svg" xmlns:xlink="http://www.w3.org/1999/xlink" width="100" zoomAndPan="magnify" viewBox="0 0 75 420" height="550" preserveAspectRatio="xMidYMid meet" version="1.0"><defs><clipPath id="95fd8845b4"><path d="M 16.644531 279.738281 L 58.644531 279.738281 L 58.644531 411 L 16.644531 411 Z M 16.644531 279.738281 " clip-rule="nonzero"/></clipPath></defs><g clip-path="url(#95fd8845b4)"><path fill="#000000" d="M 58.554688 387.476562 L 58.554688 281.492188 C 58.554688 280.507812 57.753906 279.707031 56.761719 279.707031 C 55.769531 279.707031 54.964844 280.507812 54.964844 281.492188 L 54.964844 374.84375 C 54.964844 376.21875 53.457031 377.039062 52.269531 376.328125 C 48.496094 374.074219 43.328125 373.328125 37.628906 374.617188 C 26.070312 377.230469 16.703125 387.230469 16.703125 396.945312 C 16.703125 406.664062 26.070312 412.421875 37.628906 409.808594 C 49.1875 407.191406 58.554688 397.195312 58.554688 387.480469 Z M 58.554688 387.476562 " fill-opacity="1" fill-rule="nonzero"/></g></svg>