<svg xmlns="http://www.w3.org/2000/svg" xmlns:xlink="http://www.w3.org/1999/xlink" width="100" zoomAndPan="magnify" viewBox="0 0 75 420" height="550" preserveAspectRatio="xMidYMid meet" version="1.0"><defs><clipPath id="8695610671"><path d="M 29.140625 101.554688 L 45.640625 101.554688 L 45.640625 149.554688 L 29.140625 149.554688 Z M 29.140625 101.554688 " clip-rule="nonzero"/></clipPath></defs><g clip-path="url(#8695610671)"><path fill="#ffffff" d="M 31.066406 101.578125 C 30.734375 101.59375 30.4375 101.703125 30.175781 101.90625 C 29.914062 102.113281 29.738281 102.375 29.640625 102.691406 C 29.546875 103.011719 29.554688 103.328125 29.660156 103.640625 C 29.765625 103.953125 29.953125 104.210938 30.222656 104.402344 L 34.085938 107.273438 C 34.113281 107.296875 34.136719 107.320312 34.164062 107.339844 C 34.902344 107.898438 35.152344 109.429688 34.660156 110.199219 L 29.914062 117.667969 C 28.5 119.890625 29.058594 122.871094 31.207031 124.386719 C 31.210938 124.390625 31.210938 124.390625 31.210938 124.390625 L 38.960938 129.828125 L 38.964844 129.832031 C 38.980469 129.84375 38.996094 129.851562 39.011719 129.863281 L 39.472656 130.183594 C 37.179688 130.308594 35.164062 130.804688 33.675781 131.972656 C 31.984375 133.300781 31.078125 135.398438 31.078125 137.742188 C 31.078125 141.027344 33.292969 143.453125 35.808594 145.199219 C 38.320312 146.945312 41.300781 148.210938 43.59375 149.3125 C 43.914062 149.46875 44.25 149.507812 44.601562 149.429688 C 44.949219 149.355469 45.238281 149.179688 45.46875 148.902344 C 45.695312 148.628906 45.816406 148.3125 45.828125 147.953125 C 45.839844 147.59375 45.738281 147.273438 45.527344 146.984375 C 43.71875 144.507812 41.664062 142.707031 41.664062 137.742188 C 41.664062 136.144531 42.085938 134.9375 42.621094 134.203125 C 43.144531 133.476562 43.703125 133.222656 44.242188 133.214844 C 44.589844 133.222656 44.90625 133.128906 45.1875 132.925781 C 45.472656 132.726562 45.667969 132.460938 45.773438 132.128906 C 45.878906 131.800781 45.875 131.46875 45.761719 131.140625 C 45.648438 130.8125 45.449219 130.550781 45.160156 130.359375 L 40.761719 127.269531 C 40.015625 126.738281 39.777344 125.578125 40.300781 124.757812 C 40.304688 124.757812 40.304688 124.757812 40.304688 124.757812 L 45.042969 117.300781 C 46.464844 115.109375 45.875 112.175781 43.804688 110.601562 C 43.800781 110.597656 43.796875 110.59375 43.792969 110.589844 L 36.300781 105.042969 C 36.253906 105 36.207031 104.960938 36.15625 104.925781 L 32.085938 101.898438 C 31.785156 101.667969 31.445312 101.558594 31.066406 101.578125 Z M 31.066406 101.578125 " fill-opacity="1" fill-rule="nonzero"/></g></svg>