<svg xmlns="http://www.w3.org/2000/svg" xmlns:xlink="http://www.w3.org/1999/xlink" width="100" zoomAndPan="magnify" viewBox="0 0 75 420" height="550" preserveAspectRatio="xMidYMid meet" version="1.0"><defs><clipPath id="2f8944fcd4"><path d="M 16.644531 279.738281 L 58.644531 279.738281 L 58.644531 411 L 16.644531 411 Z M 16.644531 279.738281 " clip-rule="nonzero"/></clipPath></defs><g clip-path="url(#2f8944fcd4)"><path fill="#ffffff" d="M 58.265625 387.488281 L 58.265625 281.492188 C 58.265625 280.507812 57.464844 279.707031 56.480469 279.707031 C 55.496094 279.707031 54.699219 280.507812 54.699219 281.492188 L 54.699219 374.851562 C 54.699219 376.226562 53.199219 377.046875 52.019531 376.335938 C 48.273438 374.082031 43.140625 373.335938 37.484375 374.625 C 26.003906 377.242188 16.699219 387.238281 16.699219 396.957031 C 16.699219 406.675781 26.003906 412.433594 37.484375 409.820312 C 48.960938 407.203125 58.265625 397.207031 58.265625 387.488281 Z M 58.265625 387.488281 " fill-opacity="1" fill-rule="nonzero"/></g></svg>