<svg xmlns="http://www.w3.org/2000/svg" xmlns:xlink="http://www.w3.org/1999/xlink" width="100" zoomAndPan="magnify" viewBox="0 0 75 420" height="550" preserveAspectRatio="xMidYMid meet" version="1.0"><defs><clipPath id="d64cda82c3"><path d="M 29.140625 101.554688 L 45.640625 101.554688 L 45.640625 149.554688 L 29.140625 149.554688 Z M 29.140625 101.554688 " clip-rule="nonzero"/></clipPath></defs><g clip-path="url(#d64cda82c3)"><path fill="#000000" d="M 31.042969 101.578125 C 30.714844 101.59375 30.421875 101.703125 30.164062 101.90625 C 29.90625 102.113281 29.730469 102.375 29.636719 102.691406 C 29.542969 103.011719 29.546875 103.328125 29.652344 103.644531 C 29.757812 103.957031 29.945312 104.210938 30.210938 104.40625 L 34.023438 107.28125 C 34.050781 107.304688 34.074219 107.328125 34.101562 107.347656 C 34.828125 107.90625 35.074219 109.441406 34.589844 110.210938 L 29.90625 117.6875 C 28.511719 119.914062 29.0625 122.898438 31.183594 124.414062 C 31.183594 124.417969 31.183594 124.417969 31.1875 124.421875 L 38.835938 129.863281 L 38.839844 129.867188 C 38.855469 129.878906 38.871094 129.886719 38.886719 129.898438 L 39.34375 130.21875 C 37.078125 130.34375 35.085938 130.84375 33.621094 132.011719 C 31.945312 133.339844 31.054688 135.4375 31.054688 137.789062 C 31.054688 141.074219 33.242188 143.503906 35.722656 145.25 C 38.207031 147 41.148438 148.269531 43.410156 149.371094 C 43.726562 149.527344 44.058594 149.566406 44.40625 149.488281 C 44.75 149.414062 45.035156 149.238281 45.261719 148.960938 C 45.488281 148.683594 45.605469 148.367188 45.617188 148.011719 C 45.628906 147.652344 45.53125 147.328125 45.320312 147.039062 C 43.535156 144.558594 41.507812 142.757812 41.507812 137.789062 C 41.507812 136.183594 41.921875 134.980469 42.449219 134.242188 C 42.96875 133.515625 43.519531 133.257812 44.050781 133.25 C 44.394531 133.261719 44.707031 133.167969 44.984375 132.964844 C 45.265625 132.765625 45.457031 132.5 45.5625 132.167969 C 45.667969 131.835938 45.664062 131.507812 45.554688 131.179688 C 45.441406 130.851562 45.242188 130.589844 44.960938 130.394531 L 40.613281 127.304688 C 39.878906 126.769531 39.644531 125.609375 40.160156 124.785156 C 40.164062 124.785156 40.164062 124.785156 40.164062 124.785156 L 44.84375 117.320312 C 46.246094 115.125 45.664062 112.191406 43.617188 110.613281 C 43.613281 110.609375 43.609375 110.605469 43.605469 110.601562 L 36.210938 105.046875 C 36.164062 105.003906 36.117188 104.964844 36.070312 104.929688 L 32.050781 101.898438 C 31.753906 101.667969 31.417969 101.558594 31.042969 101.578125 Z M 31.042969 101.578125 " fill-opacity="1" fill-rule="nonzero"/></g></svg>