<svg xmlns="http://www.w3.org/2000/svg" xmlns:xlink="http://www.w3.org/1999/xlink" width="250" zoomAndPan="magnify" viewBox="0 0 187.92 420.96" height="550" preserveAspectRatio="xMidYMid meet" version="1.0"><defs><clipPath id="23e666410f"><path d="M 0 126.695312 L 45.730469 126.695312 L 45.730469 271 L 0 271 Z M 0 126.695312 " clip-rule="nonzero"/></clipPath><clipPath id="6afbd5897b"><path d="M 16 100 L 187.421875 100 L 187.421875 270 L 16 270 Z M 16 100 " clip-rule="nonzero"/></clipPath><clipPath id="4444152ccd"><path d="M 17 104 L 187.421875 104 L 187.421875 273 L 17 273 Z M 17 104 " clip-rule="nonzero"/></clipPath><clipPath id="f10a789483"><path d="M 140.875 239.875 L 186.609375 239.875 L 186.609375 384 L 140.875 384 Z M 140.875 239.875 " clip-rule="nonzero"/></clipPath><clipPath id="477257e58f"><path d="M 45.8125 166.960938 L 91.542969 166.960938 L 91.542969 311 L 45.8125 311 Z M 45.8125 166.960938 " clip-rule="nonzero"/></clipPath><clipPath id="643b50be4d"><path d="M 95.066406 206.777344 L 140.796875 206.777344 L 140.796875 351 L 95.066406 351 Z M 95.066406 206.777344 " clip-rule="nonzero"/></clipPath></defs><g clip-path="url(#23e666410f)"><path fill="#ffffff" d="M 45.707031 245.035156 L 45.707031 128.621094 C 45.707031 127.539062 44.832031 126.664062 43.75 126.664062 C 42.667969 126.664062 41.792969 127.539062 41.792969 128.621094 L 41.792969 231.160156 C 41.792969 232.667969 40.144531 233.570312 38.851562 232.792969 C 34.734375 230.316406 29.097656 229.496094 22.882812 230.910156 C 10.277344 233.785156 0.0585938 244.765625 0.0585938 255.4375 C 0.0585938 266.113281 10.277344 272.4375 22.882812 269.566406 C 35.488281 266.691406 45.707031 255.710938 45.707031 245.039062 Z M 45.707031 245.035156 " fill-opacity="1" fill-rule="nonzero"/></g><g clip-path="url(#6afbd5897b)"><path stroke-linecap="round" transform="matrix(0.586522, 0.466919, -0.466919, 0.586522, 45.91837, 126.282918)" fill="none" stroke-linejoin="miter" d="M 3.497903 3.499605 L 237.778388 3.50082 " stroke="#ffffff" stroke-width="7" stroke-opacity="1" stroke-miterlimit="4"/></g><g clip-path="url(#4444152ccd)"><path stroke-linecap="round" transform="matrix(0.587774, 0.465341, -0.465341, 0.587774, 46.262537, 130.507839)" fill="none" stroke-linejoin="miter" d="M 3.501669 3.501347 L 236.671286 3.502052 " stroke="#ffffff" stroke-width="7" stroke-opacity="1" stroke-miterlimit="4"/></g><g clip-path="url(#f10a789483)"><path fill="#ffffff" d="M 186.585938 358.214844 L 186.585938 241.800781 C 186.585938 240.71875 185.707031 239.839844 184.625 239.839844 C 183.546875 239.839844 182.667969 240.71875 182.667969 241.800781 L 182.667969 344.335938 C 182.667969 345.847656 181.023438 346.75 179.726562 345.96875 C 175.613281 343.496094 169.976562 342.671875 163.757812 344.089844 C 151.152344 346.960938 140.933594 357.941406 140.933594 368.617188 C 140.933594 379.289062 151.152344 385.613281 163.757812 382.742188 C 176.363281 379.871094 186.585938 368.890625 186.585938 358.214844 Z M 186.585938 358.214844 " fill-opacity="1" fill-rule="nonzero"/></g><g clip-path="url(#477257e58f)"><path fill="#ffffff" d="M 91.519531 285.304688 L 91.519531 168.886719 C 91.519531 167.808594 90.644531 166.929688 89.5625 166.929688 C 88.480469 166.929688 87.605469 167.808594 87.605469 168.886719 L 87.605469 271.425781 C 87.605469 272.9375 85.957031 273.835938 84.664062 273.058594 C 80.546875 270.582031 74.910156 269.761719 68.695312 271.179688 C 56.089844 274.050781 45.871094 285.03125 45.871094 295.707031 C 45.871094 306.378906 56.089844 312.703125 68.695312 309.832031 C 81.300781 306.960938 91.519531 295.980469 91.519531 285.304688 Z M 91.519531 285.304688 " fill-opacity="1" fill-rule="nonzero"/></g><g clip-path="url(#643b50be4d)"><path fill="#ffffff" d="M 140.773438 325.117188 L 140.773438 208.703125 C 140.773438 207.621094 139.894531 206.746094 138.8125 206.746094 C 137.734375 206.746094 136.855469 207.621094 136.855469 208.703125 L 136.855469 311.242188 C 136.855469 312.75 135.210938 313.652344 133.914062 312.871094 C 129.800781 310.398438 124.164062 309.578125 117.945312 310.992188 C 105.339844 313.863281 95.121094 324.847656 95.121094 335.519531 C 95.121094 346.191406 105.339844 352.519531 117.945312 349.644531 C 130.554688 346.773438 140.773438 335.792969 140.773438 325.121094 Z M 140.773438 325.117188 " fill-opacity="1" fill-rule="nonzero"/></g></svg>