<svg xmlns="http://www.w3.org/2000/svg" xmlns:xlink="http://www.w3.org/1999/xlink" width="100" zoomAndPan="magnify" viewBox="0 0 75 420" height="550" preserveAspectRatio="xMidYMid meet" version="1.0"><defs><clipPath id="e2cefe28b9"><path d="M 0 0 L 75 0 L 75 138.75 L 0 138.75 Z M 0 0 " clip-rule="nonzero"/></clipPath></defs><g clip-path="url(#e2cefe28b9)"><path fill="#ffffff" d="M 41.199219 0.015625 C 42.160156 6.945312 42.296875 15.683594 49.433594 24.421875 C 54.925781 31.078125 61.101562 37.042969 65.355469 42.445312 C 70.984375 49.519531 74.96875 58.394531 74.96875 67.40625 C 74.96875 81.828125 68.105469 96.109375 63.4375 104.015625 L 61.238281 104.015625 C 64.535156 96.523438 71.121094 84.183594 70.570312 71.011719 C 70.414062 67.1875 69.679688 63.476562 68.367188 59.878906 C 67.054688 56.28125 65.230469 52.964844 62.886719 49.9375 C 57.671875 43.140625 48.890625 37.730469 41.199219 37.179688 L 41.199219 115.796875 C 41.199219 122.039062 37.496094 127.722656 32.140625 131.882812 C 29.5625 133.949219 26.726562 135.546875 23.628906 136.6875 C 20.527344 137.828125 17.328125 138.445312 14.027344 138.542969 C 12.238281 138.578125 10.496094 138.308594 8.796875 137.738281 C 7.101562 137.167969 5.550781 136.324219 4.144531 135.214844 C 3.488281 134.695312 2.902344 134.105469 2.382812 133.449219 C 1.863281 132.792969 1.421875 132.085938 1.066406 131.328125 C 0.707031 130.570312 0.441406 129.785156 0.265625 128.964844 C 0.0898438 128.144531 0.0117188 127.316406 0.0273438 126.480469 C 0.0273438 120.796875 3.871094 115.109375 9.085938 110.949219 C 14.300781 106.652344 20.890625 103.878906 26.382812 103.878906 C 31.1875 103.878906 35.304688 104.574219 37.773438 106.929688 L 37.773438 0.015625 L 41.207031 0.015625 Z M 41.199219 0.015625 " fill-opacity="1" fill-rule="evenodd"/></g></svg>