<svg xmlns="http://www.w3.org/2000/svg" xmlns:xlink="http://www.w3.org/1999/xlink" width="250" zoomAndPan="magnify" viewBox="0 0 187.92 420.96" height="550" preserveAspectRatio="xMidYMid meet" version="1.0"><defs><clipPath id="5ef3f8ecea"><path d="M 0 126 L 187.421875 126 L 187.421875 387 L 0 387 Z M 0 126 " clip-rule="nonzero"/></clipPath><clipPath id="1a54800a90"><path d="M 0 0.695312 L 45.75 0.695312 L 45.75 145 L 0 145 Z M 0 0.695312 " clip-rule="nonzero"/></clipPath><clipPath id="ecfc5e18b8"><path d="M 16 0.257812 L 187.421875 0.257812 L 187.421875 143 L 16 143 Z M 16 0.257812 " clip-rule="nonzero"/></clipPath><clipPath id="95155d6413"><path d="M 17 0.257812 L 187.421875 0.257812 L 187.421875 147 L 17 147 Z M 17 0.257812 " clip-rule="nonzero"/></clipPath><clipPath id="1f0c32c964"><path d="M 140.875 113.875 L 186.628906 113.875 L 186.628906 258 L 140.875 258 Z M 140.875 113.875 " clip-rule="nonzero"/></clipPath><clipPath id="9f6f7573cd"><path d="M 45.8125 40.960938 L 91.5625 40.960938 L 91.5625 185 L 45.8125 185 Z M 45.8125 40.960938 " clip-rule="nonzero"/></clipPath><clipPath id="de6ad8e3c6"><path d="M 95.066406 80.777344 L 140.816406 80.777344 L 140.816406 225 L 95.066406 225 Z M 95.066406 80.777344 " clip-rule="nonzero"/></clipPath><clipPath id="73b5a1a4ab"><rect x="0" width="188" y="0" height="261"/></clipPath></defs><g clip-path="url(#5ef3f8ecea)"><g transform="matrix(1, 0, 0, 1, 0, 126)"><g clip-path="url(#73b5a1a4ab)"><g clip-path="url(#1a54800a90)"><path fill="#000000" d="M 45.65625 118.84375 L 45.65625 2.617188 C 45.65625 1.539062 44.78125 0.664062 43.699219 0.664062 C 42.621094 0.664062 41.742188 1.539062 41.742188 2.617188 L 41.742188 104.988281 C 41.742188 106.496094 40.097656 107.394531 38.804688 106.617188 C 34.695312 104.144531 29.066406 103.328125 22.859375 104.742188 C 10.269531 107.609375 0.0625 118.570312 0.0625 129.226562 C 0.0625 139.882812 10.269531 146.195312 22.859375 143.328125 C 35.449219 140.464844 45.65625 129.5 45.65625 118.84375 Z M 45.65625 118.84375 " fill-opacity="1" fill-rule="nonzero"/></g><g clip-path="url(#ecfc5e18b8)"><path stroke-linecap="round" transform="matrix(0.406754, 0.323809, -0.323809, 0.406754, 45.903839, 0.300123)" fill="none" stroke-linejoin="miter" d="M 5.002854 4.998191 L 342.911215 4.998958 " stroke="#000000" stroke-width="10" stroke-opacity="1" stroke-miterlimit="4"/></g><g clip-path="url(#95155d6413)"><path stroke-linecap="round" transform="matrix(0.407622, 0.322715, -0.322715, 0.407622, 46.248381, 4.524121)" fill="none" stroke-linejoin="miter" d="M 4.998397 5.001207 L 341.315486 5.002746 " stroke="#000000" stroke-width="10" stroke-opacity="1" stroke-miterlimit="4"/></g><g clip-path="url(#1f0c32c964)"><path fill="#000000" d="M 186.53125 232.019531 L 186.53125 115.796875 C 186.53125 114.714844 185.65625 113.839844 184.578125 113.839844 C 183.496094 113.839844 182.621094 114.714844 182.621094 115.796875 L 182.621094 218.164062 C 182.621094 219.671875 180.976562 220.574219 179.683594 219.796875 C 175.574219 217.324219 169.945312 216.503906 163.734375 217.917969 C 151.144531 220.785156 140.9375 231.75 140.9375 242.40625 C 140.9375 253.0625 151.144531 259.375 163.734375 256.507812 C 176.324219 253.640625 186.53125 242.679688 186.53125 232.023438 Z M 186.53125 232.019531 " fill-opacity="1" fill-rule="nonzero"/></g><g clip-path="url(#9f6f7573cd)"><path fill="#000000" d="M 91.46875 159.109375 L 91.46875 42.886719 C 91.46875 41.804688 90.59375 40.929688 89.511719 40.929688 C 88.433594 40.929688 87.554688 41.804688 87.554688 42.886719 L 87.554688 145.253906 C 87.554688 146.761719 85.910156 147.660156 84.617188 146.882812 C 80.507812 144.414062 74.878906 143.59375 68.671875 145.007812 C 56.082031 147.875 45.875 158.835938 45.875 169.492188 C 45.875 180.148438 56.082031 186.464844 68.671875 183.597656 C 81.261719 180.730469 91.46875 169.765625 91.46875 159.109375 Z M 91.46875 159.109375 " fill-opacity="1" fill-rule="nonzero"/></g><g clip-path="url(#de6ad8e3c6)"><path fill="#000000" d="M 140.71875 198.921875 L 140.71875 82.699219 C 140.71875 81.621094 139.84375 80.746094 138.765625 80.746094 C 137.683594 80.746094 136.808594 81.621094 136.808594 82.699219 L 136.808594 185.070312 C 136.808594 186.578125 135.164062 187.476562 133.871094 186.699219 C 129.761719 184.226562 124.132812 183.40625 117.921875 184.820312 C 105.332031 187.6875 95.125 198.652344 95.125 209.308594 C 95.125 219.964844 105.332031 226.277344 117.921875 223.410156 C 130.511719 220.542969 140.71875 209.582031 140.71875 198.925781 Z M 140.71875 198.921875 " fill-opacity="1" fill-rule="nonzero"/></g></g></g></g></svg>