<svg xmlns="http://www.w3.org/2000/svg" xmlns:xlink="http://www.w3.org/1999/xlink" width="100" zoomAndPan="magnify" viewBox="0 0 75 420" height="550" preserveAspectRatio="xMidYMid meet" version="1.0"><defs><clipPath id="bdac7c647d"><path d="M 17 220.511719 L 60.675781 220.511719 L 60.675781 342 L 17 342 Z M 17 220.511719 " clip-rule="nonzero"/></clipPath></defs><g clip-path="url(#bdac7c647d)"><path fill="#ffffff" d="M 44.457031 331.398438 C 35.476562 336.878906 25.949219 337.789062 22.691406 332.445312 C 19.429688 327.105469 24.464844 319.921875 33.445312 314.441406 C 42.421875 308.957031 51.949219 307.253906 55.210938 312.59375 C 58.46875 317.9375 53.4375 325.914062 44.457031 331.398438 Z M 58.695312 220.511719 C 57.570312 220.511719 56.660156 221.421875 56.660156 222.542969 L 56.660156 308.476562 C 50.929688 302.355469 40.246094 301.039062 30.714844 305.851562 C 19.585938 311.476562 14.246094 323.335938 18.792969 332.332031 C 23.339844 341.332031 36.050781 344.066406 47.183594 338.441406 C 55.597656 334.191406 60.699219 326.378906 60.726562 318.933594 C 60.726562 318.90625 60.730469 318.878906 60.730469 318.851562 L 60.730469 222.542969 C 60.730469 221.421875 59.820312 220.511719 58.695312 220.511719 " fill-opacity="1" fill-rule="nonzero"/></g></svg>