<svg xmlns="http://www.w3.org/2000/svg" xmlns:xlink="http://www.w3.org/1999/xlink" width="100" zoomAndPan="magnify" viewBox="0 0 75 420" height="550" preserveAspectRatio="xMidYMid meet" version="1.0"><defs><clipPath id="68b61746e0"><path d="M 0 71.722656 L 75 71.722656 L 75 205.972656 L 0 205.972656 Z M 0 71.722656 " clip-rule="nonzero"/></clipPath></defs><g clip-path="url(#68b61746e0)"><path fill="#ffffff" d="M 40.246094 184.136719 C 40.246094 190.195312 36.625 195.714844 31.390625 199.75 C 28.863281 201.757812 26.085938 203.3125 23.058594 204.417969 C 20.027344 205.523438 16.902344 206.125 13.679688 206.21875 C 11.929688 206.25 10.226562 205.988281 8.570312 205.433594 C 6.914062 204.878906 5.394531 204.0625 4.019531 202.980469 C 3.378906 202.476562 2.808594 201.910156 2.300781 201.273438 C 1.792969 200.636719 1.363281 199.949219 1.015625 199.214844 C 0.664062 198.480469 0.40625 197.714844 0.234375 196.917969 C 0.0625 196.121094 -0.015625 195.316406 0 194.503906 C 0 188.984375 3.757812 183.464844 8.855469 179.429688 C 13.953125 175.253906 20.394531 172.5625 25.769531 172.5625 C 30.46875 172.5625 34.492188 173.238281 36.90625 175.523438 L 36.90625 71.742188 L 40.261719 71.742188 C 40.527344 76.589844 41.335938 83.320312 47.105469 88.570312 C 53.171875 93.707031 58.761719 99.3125 63.878906 105.394531 C 69.382812 112.261719 73.269531 120.875 73.269531 129.621094 C 73.25 134.148438 72.625 138.589844 71.394531 142.949219 C 73.753906 147.648438 74.910156 152.628906 74.863281 157.890625 C 74.863281 162.074219 74.292969 166.175781 73.152344 170.203125 C 72.015625 174.226562 70.347656 178.019531 68.152344 181.582031 L 66.007812 181.582031 C 68.824219 177.273438 72.179688 167.046875 71.914062 160.582031 C 71.636719 153.449219 71.109375 149.277344 66.546875 143.625 C 61.3125 137.164062 47.757812 130.433594 40.246094 125.183594 Z M 69.765625 130.96875 C 69.496094 123.835938 66.007812 118.320312 61.449219 112.664062 C 56.214844 106.203125 47.761719 100.820312 40.246094 96.511719 C 40.515625 106.203125 46.820312 116.027344 52.585938 121.277344 C 57.589844 125.410156 62.152344 129.988281 66.269531 135.003906 C 67.433594 136.464844 68.507812 137.988281 69.492188 139.578125 C 69.773438 136.714844 69.867188 133.84375 69.765625 130.96875 Z M 69.765625 130.96875 " fill-opacity="1" fill-rule="evenodd"/></g></svg>