<svg xmlns="http://www.w3.org/2000/svg" xmlns:xlink="http://www.w3.org/1999/xlink" width="100" zoomAndPan="magnify" viewBox="0 0 75 420" height="550" preserveAspectRatio="xMidYMid meet" version="1.0"><defs><clipPath id="bad5b4ce7c"><path d="M 0 71.722656 L 75 71.722656 L 75 205.972656 L 0 205.972656 Z M 0 71.722656 " clip-rule="nonzero"/></clipPath></defs><g clip-path="url(#bad5b4ce7c)"><path fill="#000000" d="M 40.246094 183.910156 C 40.246094 189.957031 36.625 195.464844 31.390625 199.496094 C 28.863281 201.496094 26.085938 203.046875 23.058594 204.152344 C 20.027344 205.253906 16.902344 205.855469 13.679688 205.949219 C 11.929688 205.980469 10.226562 205.71875 8.570312 205.167969 C 6.914062 204.613281 5.394531 203.796875 4.019531 202.71875 C 3.378906 202.214844 2.808594 201.648438 2.300781 201.011719 C 1.792969 200.378906 1.363281 199.691406 1.015625 198.957031 C 0.664062 198.226562 0.40625 197.460938 0.234375 196.667969 C 0.0625 195.871094 -0.015625 195.070312 0 194.257812 C 0 188.75 3.757812 183.238281 8.855469 179.210938 C 13.953125 175.046875 20.394531 172.359375 25.769531 172.359375 C 30.46875 172.359375 34.492188 173.03125 36.90625 175.316406 L 36.90625 71.742188 L 40.261719 71.742188 C 40.527344 76.578125 41.335938 83.296875 47.105469 88.535156 C 53.171875 93.660156 58.761719 99.257812 63.878906 105.328125 C 69.382812 112.179688 73.269531 120.773438 73.269531 129.507812 C 73.25 134.023438 72.625 138.457031 71.394531 142.804688 C 73.753906 147.496094 74.910156 152.46875 74.863281 157.71875 C 74.863281 161.890625 74.292969 165.988281 73.152344 170.003906 C 72.015625 174.019531 70.347656 177.808594 68.152344 181.359375 L 66.007812 181.359375 C 68.824219 177.0625 72.179688 166.855469 71.914062 160.402344 C 71.636719 153.285156 71.109375 149.121094 66.546875 143.480469 C 61.3125 137.03125 47.757812 130.316406 40.246094 125.078125 Z M 69.765625 130.851562 C 69.496094 123.730469 66.007812 118.226562 61.449219 112.582031 C 56.214844 106.132812 47.761719 100.761719 40.246094 96.460938 C 40.515625 106.132812 46.820312 115.941406 52.585938 121.179688 C 57.589844 125.304688 62.152344 129.871094 66.269531 134.875 C 67.433594 136.335938 68.507812 137.855469 69.492188 139.441406 C 69.773438 136.585938 69.867188 133.722656 69.765625 130.851562 Z M 69.765625 130.851562 " fill-opacity="1" fill-rule="evenodd"/></g></svg>