<svg xmlns="http://www.w3.org/2000/svg" xmlns:xlink="http://www.w3.org/1999/xlink" width="100" zoomAndPan="magnify" viewBox="0 0 75 420" height="550" preserveAspectRatio="xMidYMid meet" version="1.0"><defs><clipPath id="dc111ae130"><path d="M 17 220.511719 L 60.675781 220.511719 L 60.675781 342 L 17 342 Z M 17 220.511719 " clip-rule="nonzero"/></clipPath></defs><g clip-path="url(#dc111ae130)"><path fill="#180f0e" d="M 44.363281 331.566406 C 35.410156 337.054688 25.914062 337.964844 22.664062 332.617188 C 19.414062 327.265625 24.433594 320.074219 33.386719 314.582031 C 42.335938 309.09375 51.835938 307.386719 55.085938 312.734375 C 58.335938 318.085938 53.316406 326.074219 44.363281 331.566406 Z M 58.5625 220.511719 C 57.441406 220.511719 56.53125 221.421875 56.53125 222.546875 L 56.53125 308.609375 C 50.816406 302.480469 40.167969 301.160156 30.664062 305.980469 C 19.566406 311.617188 14.246094 323.492188 18.777344 332.503906 C 23.3125 341.515625 35.984375 344.253906 47.082031 338.621094 C 55.472656 334.363281 60.558594 326.539062 60.585938 319.082031 C 60.585938 319.054688 60.589844 319.03125 60.589844 319.003906 L 60.589844 222.546875 C 60.589844 221.421875 59.679688 220.511719 58.5625 220.511719 " fill-opacity="1" fill-rule="nonzero"/></g></svg>