<svg xmlns="http://www.w3.org/2000/svg" viewBox="0 0 24 24" fill="none">
  <circle cx="12" cy="12" r="12" fill="#111" />
  <g transform="translate(12 12) scale(0.85) translate(-12 -12)">
    <path d="M12 5v10m0 0l3-3m-3 3l-3-3" stroke="#fff" stroke-width="1.5" stroke-linecap="round" stroke-linejoin="round"/>
    <path d="M5 17h14c.55 0 1 .45 1 1v1c0 .55-.45 1-1 1H5c-.55 0-1-.45-1-1v-1c0-.55.45-1 1-1zm0-2V7c0-.55.45-1 1-1h12c.55 0 1 .45 1 1v8" stroke="#fff" stroke-width="1.5" stroke-linecap="round" stroke-linejoin="round"/>
  </g>
</svg>
